<svg xmlns="http://www.w3.org/2000/svg" xmlns:xlink="http://www.w3.org/1999/xlink" preserveAspectRatio="xMidYMid" width="93" height="93" viewBox="0 0 93 93">
  <defs>
    <style>
      .cls-1 {
        fill: #fff;
        fill-rule: evenodd;
      }
    </style>
  </defs>
  <path d="M88.000,72.000 L19.056,72.000 C13.557,76.450 5.159,83.247 3.000,85.000 C-0.284,87.667 -0.000,85.000 -0.000,85.000 L-0.000,68.000 L0.101,68.000 C0.035,67.677 -0.000,67.343 -0.000,67.000 L-0.000,53.000 C-0.000,50.239 2.239,48.000 5.000,48.000 L88.000,48.000 C90.761,48.000 93.000,50.239 93.000,53.000 L93.000,67.000 C93.000,69.761 90.761,72.000 88.000,72.000 ZM88.000,31.000 L5.000,31.000 C2.239,31.000 -0.000,28.761 -0.000,26.000 L-0.000,12.000 C-0.000,9.239 2.239,7.000 5.000,7.000 L88.000,7.000 C90.761,7.000 93.000,9.239 93.000,12.000 L93.000,26.000 C93.000,28.761 90.761,31.000 88.000,31.000 Z" class="cls-1"/>
</svg>
